<svg width="141" height="100" fill="none" xmlns="http://www.w3.org/2000/svg"><path fill-rule="evenodd" clip-rule="evenodd" d="M64 85.5c0 .828-8.507 1.5-19 1.5s-19-.672-19-1.5S34.507 84 45 84s19 .672 19 1.5ZM120 98.5c0 .828-3.805 1.5-8.5 1.5-4.694 0-8.5-.672-8.5-1.5s3.806-1.5 8.5-1.5c4.695 0 8.5.672 8.5 1.5ZM136 97.5c0 .828-3.134 1.5-7 1.5s-7-.672-7-1.5 3.134-1.5 7-1.5 7 .672 7 1.5Z" fill="#EFEBEA"/><path fill-rule="evenodd" clip-rule="evenodd" d="M127 82h-27V58.056L112.268 49l14.341 8.7L127 82ZM95 82H61V37.752L78 27l17 10.752V82Z" fill="#D6C7C7"/><path fill-rule="evenodd" clip-rule="evenodd" d="m56 39 9.261-14h12.813L100 39H56Z" fill="#EF5E4E"/><path fill-rule="evenodd" clip-rule="evenodd" d="m45 39 20.166-14v2.613L82 39H45Z" fill="#D55A4D"/><path fill-rule="evenodd" clip-rule="evenodd" d="m97 58 6.191-11h7.788L128 57.523 97 58Z" fill="#EF5E4E"/><path fill-rule="evenodd" clip-rule="evenodd" d="m89 58 14.442-11 .022 1.44L115 58H89Z" fill="#D55A4D"/><path fill-rule="evenodd" clip-rule="evenodd" d="M82 82H49V38.898L65.5 27 82 38.898V82Z" fill="#EFEBEA"/><path fill-rule="evenodd" clip-rule="evenodd" d="M54 73h23V58H54v15Z" fill="#BCDCE5"/><path fill-rule="evenodd" clip-rule="evenodd" d="M55 73h22V60H55v13Z" fill="#E8F4F6"/><path fill-rule="evenodd" clip-rule="evenodd" d="M53.723 72.283h22.554V58.717H53.723v13.566ZM76.638 73H53.362a.36.36 0 0 1-.362-.359V58.358a.36.36 0 0 1 .362-.358h23.276c.2 0 .362.16.362.358v14.283a.36.36 0 0 1-.362.359Z" fill="#fff"/><path fill-rule="evenodd" clip-rule="evenodd" d="M68.5 73c-.276 0-.5-.122-.5-.272V58.272c0-.15.224-.272.5-.272s.5.122.5.272v14.456c0 .15-.224.272-.5.272Z" fill="#fff"/><path fill-rule="evenodd" clip-rule="evenodd" d="M54 54h22V40H54v14Z" fill="#BCDCE5"/><path fill-rule="evenodd" clip-rule="evenodd" d="M55 54h21V42H55v12Z" fill="#E8F4F6"/><path fill-rule="evenodd" clip-rule="evenodd" d="M67.5 54c-.276 0-.5-.082-.5-.184V40.184c0-.101.224-.184.5-.184s.5.083.5.184v13.632c0 .102-.224.184-.5.184ZM76.8 44h-4.6c-.11 0-.2-.224-.2-.5s.09-.5.2-.5h4.6c.11 0 .2.224.2.5s-.09.5-.2.5Z" fill="#fff"/><path fill-rule="evenodd" clip-rule="evenodd" d="M67.823 44h-4.646c-.098 0-.177-.224-.177-.5s.08-.5.177-.5h4.646c.098 0 .177.224.177.5s-.08.5-.177.5ZM67.82 47h-4.64c-.1 0-.18-.224-.18-.5s.08-.5.18-.5h4.64c.099 0 .18.224.18.5s-.081.5-.18.5Z" fill="#fff"/><path fill-rule="evenodd" clip-rule="evenodd" d="M53.733 53.291h22.534V40.71H53.733V53.29Zm22.9.709H53.367a.36.36 0 0 1-.367-.354V40.354a.36.36 0 0 1 .367-.354h23.267a.36.36 0 0 1 .366.354v13.292a.36.36 0 0 1-.367.354Z" fill="#FCFCFC"/><path fill-rule="evenodd" clip-rule="evenodd" d="M118 82H91V58.056L103.268 49l14.342 8.7L118 82Z" fill="#EFEBEA"/><path fill-rule="evenodd" clip-rule="evenodd" d="M107 79h9V67h-9v12Z" fill="#fff"/><path fill-rule="evenodd" clip-rule="evenodd" d="M108 79h7V67h-7v12Z" fill="#D55A4D"/><path fill-rule="evenodd" clip-rule="evenodd" d="M109 79h5V67h-5v12Z" fill="#EF5E4E"/><path fill-rule="evenodd" clip-rule="evenodd" d="M114 73.5a.5.5 0 1 1-1 0 .5.5 0 0 1 1 0Z" fill="#D55A4D"/><path fill-rule="evenodd" clip-rule="evenodd" d="M95 79h8V59h-8v20Z" fill="#BCDCE5"/><path fill-rule="evenodd" clip-rule="evenodd" d="M96 79h7V60h-7v19Z" fill="#E8F4F6"/><path fill-rule="evenodd" clip-rule="evenodd" d="M95.548 78.449h7.904V58.55h-7.904V78.45Zm8.178.551h-8.452a.275.275 0 0 1-.274-.275v-20.45c0-.152.123-.275.274-.275h8.452c.151 0 .274.123.274.276v20.449a.275.275 0 0 1-.274.275Z" fill="#fff"/><path fill-rule="evenodd" clip-rule="evenodd" d="M102.828 63h-7.656c-.095 0-.172-.224-.172-.5s.077-.5.172-.5h7.656c.095 0 .172.224.172.5s-.077.5-.172.5ZM102.828 67h-7.656c-.095 0-.172-.224-.172-.5s.077-.5.172-.5h7.656c.095 0 .172.224.172.5s-.077.5-.172.5Z" fill="#fff"/><path fill-rule="evenodd" clip-rule="evenodd" d="M115.247 78H116v4h-2v-3.701l1.247-.299Z" fill="#DBCFFD"/><path fill-rule="evenodd" clip-rule="evenodd" d="M107 80h8v-2h-8v2Z" fill="#F8F7FD"/><path fill-rule="evenodd" clip-rule="evenodd" d="M106 81h9v-1h-9v1Z" fill="#EEEAFE"/><path fill-rule="evenodd" clip-rule="evenodd" d="M105 82h9v-1h-9v1Z" fill="#F8F7FD"/><path fill-rule="evenodd" clip-rule="evenodd" d="M106.96 29.512c.818.523 1.086 1.428 1.034 2.282-3.139.142-6.282.211-9.426.206.01-.852-.667-1.544-1.568-1.677.59-1.482 1.638-3.028 3.517-3.29 2.133-.296 3.789 1.459 3.448 3.266-.029.151.322.1.353-.028.264-1.108 1.681-1.373 2.642-.76Z" fill="#E8F4F6"/><path fill-rule="evenodd" clip-rule="evenodd" d="M107.738 32.656c-3.175.152-6.351.226-9.529.22-2.217.097-4.44.08-6.66.093-1.112.007-2.222.014-3.334.018l-1.665.004c-.51.001-1.044.035-1.55-.04v-.012c.07-.011.142-.02.213-.028l-.002-.021c-.02 0-.036-.009-.04-.03-.104-.67.31-1.366.96-1.665.613-.283 1.354-.189 1.894.184.097-.88.35-1.754.85-2.512.806-1.23 2.289-2.093 3.865-1.815 1.399.245 2.461 1.5 2.16 2.82.721-.337 1.55.207 1.503.964.66-1.69 1.847-3.375 3.911-3.619 1.962-.232 3.606 1.167 3.718 2.899.463-.518 1.233-.77 1.98-.622 1.435.29 2.055 1.645 1.982 2.899-.002.041-.035.075-.08.098.015.068-.056.158-.176.165Zm-.095-.233c.051-.89-.215-1.834-1.027-2.38-.955-.641-2.363-.365-2.625.791-.031.135-.38.188-.351.03.34-1.886-1.305-3.717-3.425-3.408-1.867.273-2.907 1.887-3.493 3.432.895.14 1.567.862 1.558 1.75 3.122.006 6.245-.066 9.363-.215ZM42.861 42.426c-.022-.413-.354-.87-.625-1.114a2.217 2.217 0 0 0-1.07-.539l-.021-.015c-.101-.773-.387-1.5-1.173-1.841-.283-.123-.611-.178-.913-.107l-.004-.037a6.467 6.467 0 0 0-.146-.887c-.137-.554-.391-1.103-.824-1.496-.721-.655-1.757-.687-2.621-.303-.797.354-1.325 1.019-1.65 1.799-.183.439-.304.9-.408 1.362-.018.076-.033.152-.05.227a2.652 2.652 0 0 0-1.532-1.211 2.636 2.636 0 0 0-1.723.098 2.69 2.69 0 0 0-.742.459 1.473 1.473 0 0 0-1.094-.805l-.017-.002a1.452 1.452 0 0 0-.805.14c-.012-.314-.016-.63-.028-.945-.026-.69-.104-1.361-.332-2.018-.372-.945-1.09-1.865-2.137-2.128-1.22-.305-2.317.545-2.978 1.467-.801 1.118-1.212 2.495-1.234 3.854-.01.688.08 1.374.274 2.035a.987.987 0 0 0 .049.127 4.192 4.192 0 0 0-.172-.027 1.794 1.794 0 0 0-.994.13c-.759.345-1.07 1.146-.788 1.904l.01.018a.286.286 0 0 0 .114.257c.369.269 1.151.14 1.602.147.793.01 1.585-.004 2.377-.01 1.45-.013 2.9-.004 4.35-.003l9.075.001c1.524 0 3.048.032 4.572.016.33-.004.659-.01.988-.022.186-.006.57.06.72-.078.151-.14.093-.34-.05-.453ZM129.93 40.769c.191-.22-.052-.675-.21-.86-.232-.274-.58-.424-.953-.45-.072-.407-.521-.694-.97-.666a1.342 1.342 0 0 0-.135-.852c-.247-.473-.742-.794-1.298-.907h-.013l-.01-.004c-.843-.13-1.662.175-2.269.702a3.047 3.047 0 0 0-.756 1c-.077.163-.273.592-.317.915a1.462 1.462 0 0 0-.912-.025 1.108 1.108 0 0 0-.382.135 1 1 0 0 0-.269.228 1.167 1.167 0 0 0-.147.167c-.064.09-.217.377-.217.569l-.02.002c-.021.003-.052.013-.052.038v.008c0 .087.12.169.208.18.699.087 1.431.036 2.135.038.793.003 1.586.002 2.379.004.748.002 1.497.008 2.246.005a73.623 73.623 0 0 0 1.652-.025c.094-.003.25.027.325-.043.035-.034-.023-.097-.049-.122l-.002-.004.036-.033ZM54.779 30.695c.095.007.211-.04.216-.122.083-1.425-.949-2.708-2.293-3.053a3.482 3.482 0 0 0-3.213.84c-.038-.463-.308-.9-.808-.971a1.105 1.105 0 0 0-.76.185c-.064-.982-.225-2-.91-2.735-.614-.657-1.55-1.025-2.426-.743-.999.323-1.635 1.374-2.018 2.302a6.408 6.408 0 0 0-.48 2.657c-.496-.498-1.299-.693-1.964-.456-.928.33-1.431 1.467-.917 2.351.025.043.09.05.133.05l5.227-.103 8.329-.165 1.884-.037Z" fill="#E8F4F6"/><path fill-rule="evenodd" clip-rule="evenodd" d="M29.07 84c-.936.002-1.75-.74-1.974-1.83a5.146 5.146 0 0 1-.094-1.17c.028-1.05.35-1.843.8-2.366.355-.414.833-.634 1.318-.634H30l-.157 5.998-.774.002Z" fill="#403B45"/><path fill-rule="evenodd" clip-rule="evenodd" d="M32.998 81c-.058 1.657-1.223 3-2.602 3-1.38 0-2.451-1.343-2.394-3 .058-1.657 1.223-3 2.602-3 1.38 0 2.452 1.343 2.394 3Z" fill="#77757A"/><path fill-rule="evenodd" clip-rule="evenodd" d="M31.999 81c-.036 1.105-.735 2-1.563 2s-1.47-.895-1.435-2c.036-1.104.735-2 1.563-2s1.47.896 1.435 2Z" fill="#403B45"/><path fill-rule="evenodd" clip-rule="evenodd" d="M31 81.5a.526.526 0 0 1-.521.5.475.475 0 0 1-.479-.5.526.526 0 0 1 .521-.5c.276 0 .49.224.479.5Z" fill="#DBCFFD"/><path fill-rule="evenodd" clip-rule="evenodd" d="M54.76 84c-1.248.002-2.333-.74-2.633-1.83a3.893 3.893 0 0 1-.124-1.17c.037-1.05.466-1.843 1.065-2.366.474-.414 1.112-.634 1.76-.634H56l-.21 5.998-1.03.002Z" fill="#403B45"/><path fill-rule="evenodd" clip-rule="evenodd" d="M57.998 81c-.058 1.657-1.223 3-2.602 3-1.38 0-2.452-1.343-2.394-3 .058-1.657 1.223-3 2.603-3 1.38 0 2.45 1.343 2.393 3Z" fill="#77757A"/><path fill-rule="evenodd" clip-rule="evenodd" d="M56.999 81c-.036 1.105-.736 2-1.563 2-.828 0-1.47-.895-1.435-2 .036-1.104.736-2 1.563-2 .828 0 1.47.896 1.435 2Z" fill="#403B45"/><path fill-rule="evenodd" clip-rule="evenodd" d="M56 81.5a.527.527 0 0 1-.521.5.475.475 0 0 1-.478-.5.526.526 0 0 1 .52-.5c.276 0 .49.224.478.5Z" fill="#DBCFFD"/><path fill-rule="evenodd" clip-rule="evenodd" d="M66.125 68h-.551c-.317 0-.574-.164-.574-.365V65h1.125c.483 0 .875.25.875.558v1.884c0 .308-.392.558-.875.558Z" fill="#EF5E4E"/><path fill-rule="evenodd" clip-rule="evenodd" d="M65.312 71 69 74.082V82H57V71.45l8.312-.45Z" fill="#D55A4D"/><path fill-rule="evenodd" clip-rule="evenodd" d="M61.438 82H44.562c-.31 0-.562-.19-.562-.423v-.154c0-.234.252-.423.562-.423h16.876c.31 0 .562.19.562.423v.154c0 .234-.252.423-.562.423Z" fill="#D55A4D"/><path fill-rule="evenodd" clip-rule="evenodd" d="M41 82H24.782a.781.781 0 0 1-.782-.781V62.504A2.505 2.505 0 0 1 26.506 60H41v22Z" fill="#EF5E4E"/><path fill-rule="evenodd" clip-rule="evenodd" d="M57.135 82h-16.27C39.835 82 39 81.177 39 80.162V61.838c0-1.015.835-1.838 1.865-1.838h16.27c1.03 0 1.865.823 1.865 1.838v18.324C59 81.177 58.165 82 57.135 82Z" fill="#EF5E4E"/><path fill-rule="evenodd" clip-rule="evenodd" d="M39 81H25V61.963c0-.532.441-.963.986-.963h12.028c.545 0 .986.431.986.963V81ZM66 73h-7V63h4.09c.663 0 1.23.477 1.346 1.132L66 73Z" fill="#D55A4D"/><path fill-rule="evenodd" clip-rule="evenodd" d="M63.654 71H59v-7h2.955c.48 0 .89.334.974.793l1.067 5.86c.033.183-.13.347-.342.347Z" fill="#F5D8D4"/><path fill-rule="evenodd" clip-rule="evenodd" d="M66.146 68h-.488c-.364 0-.658-.151-.658-.338V65h1.339c.365 0 .661.152.661.34v2.221c0 .242-.382.439-.854.439Z" fill="#BCDCE5"/><path fill-rule="evenodd" clip-rule="evenodd" d="M61.178 78.877c-1.022 1.014-.73 2.123-.73 2.123H59v-8h5v5.122s-1.727-.332-2.822.755ZM68.403 79h-.268c-.075 0-.135-.076-.135-.17v-2.66c0-.094.06-.17.135-.17h.268c.33 0 .597.337.597.752v1.496c0 .415-.267.752-.597.752ZM68.616 82h-1.232c-.212 0-.384-.205-.384-.458v-1.084c0-.253.172-.458.384-.458h1.232c.212 0 .384.205.384.458v1.084c0 .253-.172.458-.384.458Z" fill="#EF5E4E"/><path fill-rule="evenodd" clip-rule="evenodd" d="M63.76 84c-1.248.002-2.333-.74-2.633-1.83a3.896 3.896 0 0 1-.124-1.17c.037-1.05.466-1.843 1.065-2.366.474-.414 1.112-.634 1.76-.634H65l-.21 5.998-1.03.002Z" fill="#403B45"/><path fill-rule="evenodd" clip-rule="evenodd" d="M66.998 81c-.058 1.657-1.223 3-2.602 3-1.38 0-2.452-1.343-2.394-3 .058-1.657 1.223-3 2.602-3 1.38 0 2.451 1.343 2.394 3Z" fill="#77757A"/><path fill-rule="evenodd" clip-rule="evenodd" d="M65.999 81.5a1.58 1.58 0 0 1-1.563 1.5c-.828 0-1.47-.672-1.435-1.5a1.58 1.58 0 0 1 1.563-1.5c.828 0 1.47.671 1.435 1.5Z" fill="#EF5E4E"/><path fill-rule="evenodd" clip-rule="evenodd" d="M65 81.5a.526.526 0 0 1-.521.5.475.475 0 0 1-.478-.5.526.526 0 0 1 .52-.5c.276 0 .49.224.478.5Z" fill="#DBCFFD"/><path fill-rule="evenodd" clip-rule="evenodd" d="M42.76 85c-1.248.002-2.333-.74-2.633-1.83a3.895 3.895 0 0 1-.124-1.17c.037-1.05.466-1.843 1.065-2.366.474-.414 1.112-.634 1.76-.634H44l-.21 5.998-1.03.002Z" fill="#403B45"/><path fill-rule="evenodd" clip-rule="evenodd" d="M45.998 82c-.058 1.657-1.223 3-2.602 3-1.38 0-2.451-1.343-2.394-3 .058-1.657 1.223-3 2.602-3 1.38 0 2.452 1.343 2.394 3Z" fill="#77757A"/><path fill-rule="evenodd" clip-rule="evenodd" d="M44.999 82c-.036 1.105-.735 2-1.563 2s-1.47-.895-1.435-2c.036-1.104.736-2 1.563-2 .828 0 1.47.896 1.435 2Z" fill="#CBB3FC"/><path fill-rule="evenodd" clip-rule="evenodd" d="M44 81.5a.527.527 0 0 1-.522.5.475.475 0 0 1-.477-.5.526.526 0 0 1 .52-.5c.276 0 .49.224.478.5Z" fill="#DBCFFD"/><path fill-rule="evenodd" clip-rule="evenodd" d="M61.785 74h-1.57c-.119 0-.215-.19-.215-.423v-.154c0-.234.096-.423.215-.423h1.57c.119 0 .215.19.215.423v.154c0 .234-.096.423-.215.423ZM39.452 82H24.548c-.303 0-.548-.19-.548-.423v-.154c0-.234.245-.423.548-.423h14.904c.303 0 .548.19.548.423v.154c0 .234-.245.423-.548.423Z" fill="#D55A4D"/><path fill-rule="evenodd" clip-rule="evenodd" d="M24 82h-6.933c-.59 0-1.067-.464-1.067-1.037V62.037c0-.573.477-1.037 1.067-1.037h6.932c.553 0 1.001.435 1.001.972v19.056c0 .537-.448.972-1 .972Z" fill="#EF5E4E"/><path fill-rule="evenodd" clip-rule="evenodd" d="M17 66h7v-4h-7v4Z" fill="#F5D8D4"/><path fill-rule="evenodd" clip-rule="evenodd" d="M47 82h-6.933c-.59 0-1.067-.464-1.067-1.037V62.037c0-.573.478-1.037 1.067-1.037h6.932c.553 0 1.001.435 1.001.972v19.056c0 .537-.448.972-1 .972Z" fill="#D55A4D"/><path fill-rule="evenodd" clip-rule="evenodd" d="M31 81h6v-7h-6v7Z" fill="#FFE5B0"/><path fill-rule="evenodd" clip-rule="evenodd" d="M37 81h3v-7h-3v7Z" fill="#FCD4A4"/><path fill-rule="evenodd" clip-rule="evenodd" d="M31 76h2v-1h-2v1Z" fill="#F4C490"/><path fill-rule="evenodd" clip-rule="evenodd" d="M31 76h2v-1h-2v1Z" fill="#DFB281"/><path fill-rule="evenodd" clip-rule="evenodd" d="M25 81h3v-5h-3v5Z" fill="#FFE5B0"/><path fill-rule="evenodd" clip-rule="evenodd" d="M26 80h2v-4h-2v4Z" fill="#FCD4A4"/><path fill-rule="evenodd" clip-rule="evenodd" d="M26 79.811 27.713 76H28v.403L26.327 80H26v-.189Z" fill="#FFE5B0"/><path fill-rule="evenodd" clip-rule="evenodd" d="M28 81h3v-5h-3v5Z" fill="#FCD4A4"/><path fill-rule="evenodd" clip-rule="evenodd" d="M28 80h2v-4h-2v4Z" fill="#F4C490"/><path fill-rule="evenodd" clip-rule="evenodd" d="M28 79.811 29.713 76H30v.403L28.327 80H28v-.189Z" fill="#FCD4A4"/><path fill-rule="evenodd" clip-rule="evenodd" d="M32 74h4v-4h-4v4Z" fill="#FFE5B0"/><path fill-rule="evenodd" clip-rule="evenodd" d="M36 74h3v-4h-3v4Z" fill="#FCD4A4"/><path fill-rule="evenodd" clip-rule="evenodd" d="M46.11 82h-6.162c-.523 0-.948-.464-.948-1.037V62.037c0-.573.425-1.037.948-1.037h6.163c.49 0 .889.435.889.972v19.056c0 .537-.398.972-.89.972Z" fill="#EF5E4E"/><path fill-rule="evenodd" clip-rule="evenodd" d="M39 66h7v-4h-7v4Z" fill="#F5D8D4"/><path fill-rule="evenodd" clip-rule="evenodd" d="M93.98 79.664c-.25.042-.493.064-.722.132a3.906 3.906 0 0 0-.003-.311c-.123-2.049-1.816-3.605-3.783-3.478-1.923.125-3.39 1.816-3.34 3.806a1.726 1.726 0 0 0-.275-.005c-2.055.169-1.852 2.186-1.852 2.186L97 82s-.499-2.756-3.02-2.336Z" fill="#9BD3DD"/><path fill-rule="evenodd" clip-rule="evenodd" d="M132.366 80.323a1.17 1.17 0 0 0-.491.126 2.912 2.912 0 0 0-.8-1.125c.032-.168.046-.343.035-.522-.062-1.066-.9-1.876-1.871-1.808a1.662 1.662 0 0 0-.956.393c-.713-.912-1.79-1.461-2.967-1.379-1.516.106-2.75 1.227-3.196 2.72a2.308 2.308 0 0 0-.26.003c-.879.062-1.619.62-2.014 1.409a1.756 1.756 0 0 0-1.113-.316c-1.785.1-1.733 2.163-1.733 2.163s3.312.028 7.403.002c4.398-.028 9.597-.088 9.597-.088s-.131-1.566-1.634-1.578ZM85.373 80.37a1.17 1.17 0 0 0-.492.124 2.928 2.928 0 0 0-.795-1.133c.032-.168.047-.343.037-.523-.057-1.07-.892-1.885-1.863-1.822a1.66 1.66 0 0 0-.958.39c-.709-.92-1.784-1.476-2.961-1.399-1.516.099-2.755 1.216-3.207 2.71a2.304 2.304 0 0 0-.26.002c-.88.058-1.622.614-2.02 1.403a1.753 1.753 0 0 0-1.112-.322C69.956 79.89 70 81.96 70 81.96s3.312.045 7.403.04c4.398-.006 9.597-.04 9.597-.04s-.124-1.57-1.627-1.59Z" fill="#D2E7ED"/><path fill-rule="evenodd" clip-rule="evenodd" d="M135 82h1v-7h-1v7Z" fill="#128046"/><path fill-rule="evenodd" clip-rule="evenodd" d="M141 66.88c0 8.01-2.511 12.12-5.488 12.12-2.977 0-5.512-3.825-5.512-11.835 0-8.01 5.512-21.165 5.512-21.165S141 58.87 141 66.88Z" fill="#39A76D"/><mask id="a" style="mask-type:alpha" maskUnits="userSpaceOnUse" x="131" y="48" width="6" height="21"><path d="M133.315 68.487a.918.918 0 0 1-.102-.005c-1.216-.139-1.993-2.558-1.448-7.376.544-4.819 3.692-12.475 3.692-12.475s1.368 7.997.823 12.815c-.529 4.685-1.778 7.041-2.965 7.041Z" fill="#fff"/></mask><g mask="url(#a)"><path fill-rule="evenodd" clip-rule="evenodd" d="M131.219 68.487h5.604V48.631h-5.604v19.856Z" fill="#67CD6A"/></g><path fill-rule="evenodd" clip-rule="evenodd" d="M114.97 93s-1.855 1.475-.239 2.907l-.152 1.256s-.846.323-.493.837l.875-.292 1.066-1.482s-.146-.845.28-1.075c.425-.229 1.509-.476 1.693-1.236L114.97 93ZM115 87.783s.388-1.585.956-1.782c.027-.01.05.04.043.093l-.24 1.906-.759-.217Z" fill="#F98115"/><path fill-rule="evenodd" clip-rule="evenodd" d="m114.304 88.061-.563-.054a1.118 1.118 0 0 0-.523.06c-.144.058-.239.166-.193.249.02.037-.046.103-.018.146.122.19.519.307.836.355.406.063 1.157.183 1.157.183l-.696-.939Z" fill="#FF9A2E"/><path fill-rule="evenodd" clip-rule="evenodd" d="M115.39 87.177s-1.022-.33-1.22-.09c-.197.24-.372.623-.372.623s-.37.64-.3 1.095c.071.455.086.53-.006.69-.092.16-.357.74-.486.933-.13.193 2.054.572 2.054.572l.018-.766s.748-.963.866-1.314c.117-.352.015-1.121.015-1.121l-.569-.622ZM116 87.64l.952-.636c.025-.017.051.022.048.073-.018.312-.09 1.208-.333 1.555-.297.424-.578.365-.578.365L116 87.64Z" fill="#FF9A2E"/><path fill-rule="evenodd" clip-rule="evenodd" d="M114.806 89.337s1.124.295 1.187.461c.064.166-.333.77-.551 1.363-.179.486-1.98.692-2.223.87-.243.176-.304.969-.304.969s-1.072-1.3-.895-1.517c.176-.218.94-1.482.94-1.482s.572-.48.482-.869c-.09-.39 1.364.205 1.364.205Z" fill="#FF9A2E"/><path fill-rule="evenodd" clip-rule="evenodd" d="m113 90-2.479 2.185s-.397.08-.509.477c-.049.174.067.338.067.338l.531-.193 2.051-.79L113 90Z" fill="#F98115"/><path fill-rule="evenodd" clip-rule="evenodd" d="M115.371 91s.44.624 1.038 1.231c.598.608 1.712 1.095 1.58 1.464-.131.369-2.723.3-2.723.3s-1.932-.437-2.241-1.37c-.309-.935 2.346-1.625 2.346-1.625Z" fill="#FF9A2E"/><path fill-rule="evenodd" clip-rule="evenodd" d="M117.287 93.383s.777-.19.94-1.217c.163-1.027-.485-1.065-.637-.832 0 0 .58-.851 1.221.165.641 1.017-.484 2.892-1.372 2.429-.889-.463-.152-.545-.152-.545Z" fill="#FF9A2E"/><path fill-rule="evenodd" clip-rule="evenodd" d="M115 88s-.222.013-.6.21l-.675-.147s-.452.082-.366.5c0 0-.213.414.452.768 0 0 .021.267-.248.686a.805.805 0 0 0-.068.138l-.478 1.094s-.044.687.009.901c.081.328.302.85.302.85l.17-.944 1.279-1.173.083-1.243a.326.326 0 0 0-.12-.283c-.287-.216-.939-.719-.888-.81a.243.243 0 0 1 .183-.13l.489-.068L115 88ZM113 93.112l.872-.112s2.014.815 2.128.9c0 0-.176.049-.246.1 0 0-1.691-.397-2.143-.55-.376-.128-.611-.338-.611-.338Z" fill="#FFE5B0"/><path fill-rule="evenodd" clip-rule="evenodd" d="M116 88.366s.714-.398 1-.364c0 0 .015.304-.143.567-.197.328-.351.4-.701.431l-.156-.634Z" fill="#F98115"/><path fill-rule="evenodd" clip-rule="evenodd" d="M115.355 94s-1.094 1.51.559 2.349l.257 1.138s-.788.117-.379.513l.816-.046.418-1.591s-.334-.643-.055-.903 1.076-.656 1.027-1.292L115.355 94Z" fill="#FF9A2E"/><path fill-rule="evenodd" clip-rule="evenodd" d="M113.188 89s1.285.744 2.812.746l-.126.254s-1.58.017-2.874-.77l.188-.23Z" fill="#FF5E4D"/><path fill-rule="evenodd" clip-rule="evenodd" d="m113.979 92.8.021-1.41-.986.263-1.117-1.378s-.22-.291-.384-.274c-.164.017-.513.358-.513.358s.199.371.45.332l.728 1.798c.146.37.599.594.953.482.207-.066.848-.172.848-.172Z" fill="#FF9A2E"/><path fill-rule="evenodd" clip-rule="evenodd" d="M113.187 88s-.207.41-.185.659c.037.434.998.33.998.33l-.813-.989Z" fill="#FFE5B0"/><path fill-rule="evenodd" clip-rule="evenodd" d="M126 17.5c0 4.695-4.029 8.5-9 8.5-4.97 0-9-3.805-9-8.5 0-4.694 4.03-8.5 9-8.5 4.971 0 9 3.806 9 8.5Z" fill="#FFDB8C"/><path fill-rule="evenodd" clip-rule="evenodd" d="M29 89.5c0 .828-3.582 1.5-8 1.5s-8-.672-8-1.5 3.582-1.5 8-1.5 8 .672 8 1.5Z" fill="#EFEBEA"/><path fill-rule="evenodd" clip-rule="evenodd" d="M16 89.892c-.002-.92.623-.75 1.024-.892-.108.109-.238.265-.066.335.252.104.8-.033.96-.316.063.207.082.495.082.694 0 .256-2 .398-2 .179ZM25 89.892c0-.999-.624-.749-1.024-.892.107.109.238.265.066.335-.252.104-.8-.033-.96-.316a2.669 2.669 0 0 0-.082.694c0 .256 2 .398 2 .18Z" fill="#30193B"/><path fill-rule="evenodd" clip-rule="evenodd" d="M24 66s1.176-.009 1.85 1.404c.053.112.15.363.15.363L25.155 69 24 66Z" fill="#E99B76"/><path fill-rule="evenodd" clip-rule="evenodd" d="m21 67.665.326 2.217.168 1.868s.714.36 1.526.216c1.042-.184 1.772-.566 1.812-.571.071-.01.443-4.617-.22-5.072-.517-.354-1.188-.423-2.373-.178-.603.125-1.244.76-1.239 1.52Z" fill="#E99B76"/><path fill-rule="evenodd" clip-rule="evenodd" d="m21 67.683.324 2.217.154 1.835s.256.188.454.223c.608.106 1.002-.023 1.002-.023s.091-1.34.06-2.935c-.038-1.867-.25-3-.25-3s-.369.047-.953.275c-.367.144-.622.48-.622.48s-.169.584-.169.928Z" fill="#F1A786"/><path fill-rule="evenodd" clip-rule="evenodd" d="M22 66.157s.24.934 1.072.836c.832-.099.928-.833.928-.833s-.592-.114-1.314-.16l-.686.157ZM23.813 65.763c.074-.05.14-.26.183-.438.036-.146-.185-.28-.489-.298-.47-.026-.993-.041-1.146-.008-.24.051-.291.203-.335.316-.044.112-.04.32.072.428.101.097.452.206.665.222.64.048.847-.016 1.05-.222ZM22 66.012s-1.69-.105-3.42.3c-.285.066-.907.176-1.432.721-.393.408.12.967.12.967s1.929-.339 2.53-.34c.696-.003 1.583-.003 1.583-.003L22 66.012Z" fill="#7E74B2"/><path fill-rule="evenodd" clip-rule="evenodd" d="M22 66.009s-1.144-.05-2 .091c0 0 .056 1.719.09 1.9l1.49-.038.42-1.953Z" fill="#F1A786"/><path fill-rule="evenodd" clip-rule="evenodd" d="m22.58 68.04 1.045-.04c.555-.02 1.033.402 1.101.972L25 71.264s-2.26 1.325-4 .42l.571-2.768a1.082 1.082 0 0 1 1.009-.876Z" fill="#62A0D3"/><path fill-rule="evenodd" clip-rule="evenodd" d="M21 66.01s.596 1.946.71 2.99l.29-.158L21.445 66l-.445.01Z" fill="#62A0D3"/><path fill-rule="evenodd" clip-rule="evenodd" d="M20.125 71 23 70.669 22.875 68 20 68.244 20.125 71Z" fill="#FCD4A4"/><path fill-rule="evenodd" clip-rule="evenodd" d="m17 68 .084 2.665L20 71l-.084-2.782L17 68Z" fill="#FFE5B0"/><path fill-rule="evenodd" clip-rule="evenodd" d="m20.028 69 .972-.165-.028-.835-.972.165.028.835Z" fill="#fff"/><path fill-rule="evenodd" clip-rule="evenodd" d="m20.002 69 .998-.744-.002-.256-.998.746.002.254Z" fill="#DBCFFD"/><path fill-rule="evenodd" clip-rule="evenodd" d="m20 70.938-.132.062s-2.288-2.216-2.84-3.365c-.115-.239.132-.66.73-.634.358.016.834.689 1.004.952.735 1.138 1.238 2.985 1.238 2.985Z" fill="#7E74B2"/><path fill-rule="evenodd" clip-rule="evenodd" d="M26.643 73.272c-.61-1.126-1.683-2.174-1.928-2.272-.71.03-2.976.445-3.26.455-.233.117-.535.697-1.031 1.93C19.23 76.359 17 88.778 17 88.778l.744.147s2.396-5.68 3.898-9.404c.871-2.16 1.098-2.455 1.59-3.193.39 1.079-.05 11.702-.024 12.45.011.329.801.264.829 0 .197-1.871 4.15-12.65 2.606-15.505Z" fill="#62A0D3"/><path fill-rule="evenodd" clip-rule="evenodd" d="M26.642 72.89c-.33-.698-1.058-1.825-1.058-1.825l-.5-2.046c-.077-.598-.617-1.04-1.244-1.018l-.708.024s.522 1.382.43 3.45c-.097 2.189-.296 3.946-.536 4.677.412 1.093-.052 11.864-.025 12.622.012.333.847.268.877 0 .15-1.367 2.342-7.383 2.977-11.799.247-1.712.18-3.25-.213-4.084Z" fill="#528CC6"/><path fill-rule="evenodd" clip-rule="evenodd" d="M27.783 69.02s.588 1.335-.172 1.917c0 0-1.668.583-2.611-1.798l1.646 1.015s.686-.887 1.031-1.108c.132-.085.106-.026.106-.026Z" fill="#7E74B2"/><path fill-rule="evenodd" clip-rule="evenodd" d="m25.04 71 2.063-.404c.03-.006.06-.038.068-.072l.827-3.472c.008-.034-.01-.057-.039-.051l-2.062.403c-.03.006-.06.038-.068.072l-.827 3.472c-.008.034.01.057.038.051Z" fill="#30193B"/><path fill-rule="evenodd" clip-rule="evenodd" d="m25.043 70.999 2.049-.397c.03-.006.063-.039.071-.074l.835-3.475c.008-.035-.01-.058-.041-.052l-2.049.397c-.03.006-.063.039-.071.074l-.835 3.475c-.008.035.01.058.041.052Z" fill="#3B2B5B"/><path fill-rule="evenodd" clip-rule="evenodd" d="m28 67-.34.714-1.645.286-.015-.61 2-.39Z" fill="#30193B"/><path fill-rule="evenodd" clip-rule="evenodd" d="M24 64.341s-.437-.31-.88-.339c-.444-.028-1.348.234-1.067.753 0 0 .052.177.218.245 0 0-.068-.204.51-.51.242-.129 1.219-.149 1.219-.149Z" fill="#F1A786"/><path fill-rule="evenodd" clip-rule="evenodd" d="M23 64.567s.883-.936 1.834-.403c.64.36-.783.836-.783.836s.043-.493-.691-.505a1.007 1.007 0 0 0-.36.072Z" fill="#E99B76"/><path fill-rule="evenodd" clip-rule="evenodd" d="M72 96c0 1.105-8.059 2-18 2s-18-.895-18-2 8.059-2 18-2 18 .895 18 2Z" fill="#EFEBEA"/><path fill-rule="evenodd" clip-rule="evenodd" d="M40.79 96.998c.593-.22-.226-.47-.532-.666.049.075.097.173-.098.13-.284-.063-.732-.313-.746-.462-.158.04-.313.124-.408.185-.123.08 1.647.864 1.784.813Z" fill="#30193B"/><path fill-rule="evenodd" clip-rule="evenodd" d="M60 95.5a1.5 1.5 0 1 1-3 0 1.5 1.5 0 0 1 3 0Z" fill="#403B45"/><path fill-rule="evenodd" clip-rule="evenodd" d="M59 95.5a.5.5 0 1 1-1 0 .5.5 0 0 1 1 0Z" fill="#EF5E4E"/><path fill-rule="evenodd" clip-rule="evenodd" d="M59 95.5a.5.5 0 1 1-1 0 .5.5 0 0 1 1 0Z" fill="#ECB1A8"/><path fill-rule="evenodd" clip-rule="evenodd" d="M58 93s.45 2 .596 2c.321 0 .404-1.94.404-1.94L58 93Z" fill="#EF5E4E"/><path fill-rule="evenodd" clip-rule="evenodd" d="M69 95.5a1.5 1.5 0 1 1-3 0 1.5 1.5 0 0 1 3 0Z" fill="#403B45"/><path fill-rule="evenodd" clip-rule="evenodd" d="M68 95.5a.5.5 0 1 1-1 0 .5.5 0 0 1 1 0Z" fill="#EF5E4E"/><path fill-rule="evenodd" clip-rule="evenodd" d="M68 95.5a.5.5 0 1 1-1 0 .5.5 0 0 1 1 0Z" fill="#ECB1A8"/><path fill-rule="evenodd" clip-rule="evenodd" d="M67 93s.45 2 .596 2c.321 0 .404-1.94.404-1.94L67 93Z" fill="#EF5E4E"/><path fill-rule="evenodd" clip-rule="evenodd" d="M50.029 79.019c-.186.057.59.827.59.827.5.109.836.186.984.14.205-.061.41-.287.396-.413-.005-.049-.049-.1-.27-.191-.124-.05-1.342-.475-1.7-.364ZM46.062 75.157C45.926 76.167 50.667 79 50.667 79l.333-.204-3.779-3.72c-1.877-1.635-.981-1.242-1.16.08Z" fill="#7E74B2"/><path fill-rule="evenodd" clip-rule="evenodd" d="M42.707 80.358c-1.09 1.223-.127 6.724-.127 6.724s-2.63 8.455-2.58 8.566l.695.352c.016.034 3.639-6.044 4.462-8.145.416-1.06 1.63-3.873 1.831-6.646.067-.917-.169-3.531-.139-4.003.068-1.071-3.422 2.345-4.142 3.152Z" fill="#528CC6"/><path fill-rule="evenodd" clip-rule="evenodd" d="M53 96.298c-.059-.509-.382-.227-.586-.158.063.026.143.072.072.185-.105.165-.377.296-.486.18-.004.156.023.345.047.47.031.163.97-.532.953-.677Z" fill="#30193B"/><path fill-rule="evenodd" clip-rule="evenodd" d="M42.09 82.645c.434 2.202 4.351 4.797 4.351 4.797l4.846 8.38c.117.18.158.204.268.157l.34-.143a.158.158 0 0 0 .08-.072c.318-.606-2.433-7.301-3.044-9.841-.218-.905-3.357-5.923-3.357-5.923s.206-2.67.02-2.876c-.423-.012-.966-.547-1.978.701-.48.59-2 2.408-1.525 4.82Z" fill="#62A0D3"/><path fill-rule="evenodd" clip-rule="evenodd" d="M42.706 72.446c.54-.305 1.301-.368 1.457-.398.651-.125 1.41-.088 2.213 1.17.3.47.492 1.942.537 2.266.216 1.542-.039 4.048-.039 4.048s-.348.101-1.55.307c-1.807.308-3.309.114-3.291-.088.168-1.941-.017-1.408-.033-5.114-.001-.312.07-1.831.706-2.19Z" fill="#E99B76"/><path fill-rule="evenodd" clip-rule="evenodd" d="M51.589 81a.708.708 0 0 1-.172-.02l-2.178-.551c-.206-.052-.296-.186-.201-.298.095-.113.339-.162.545-.11l2.178.55c.206.053.296.186.201.299-.07.082-.218.13-.373.13ZM57.875 93a.124.124 0 0 1-.12-.08l-3.108-9.288c-.284-.695-.856-1.258-1.609-1.58l-1.966-.839c-.063-.026-.09-.093-.06-.149.03-.056.105-.08.167-.053l1.967.84c.812.346 1.43.953 1.739 1.71l3.11 9.295c.02.06-.018.122-.084.14l-.036.004ZM53.876 81a.136.136 0 0 1-.056-.012l-1.752-.784c-.061-.027-.086-.092-.054-.145.03-.053.106-.074.167-.047l1.752.784c.06.027.085.092.053.145a.128.128 0 0 1-.11.059Z" fill="#403B45"/><path fill-rule="evenodd" clip-rule="evenodd" d="M52.71 81a.218.218 0 0 1-.138-.052l-1.42-1.14c-.14-.113-.193-.374-.117-.582.076-.21.252-.287.393-.174l1.42 1.14c.14.113.193.374.117.583-.052.144-.152.225-.255.225Z" fill="#403B45"/><path fill-rule="evenodd" clip-rule="evenodd" d="M49.008 80.034c-.074.076.411.859.411.859.244.083.41.142.468.083.08-.082.134-.343.105-.478-.011-.054-.04-.107-.155-.19-.065-.045-.688-.42-.83-.274ZM51 79s.943.215.976.374c.032.158.02.255.02.255s.034.366-.11.37c-.178.007-.205-.446-.205-.446L51 79ZM44.154 71s-.244.793-.118.882c.128.09.59.208.852.01.262-.197-.018-.89-.018-.89L44.154 71Z" fill="#7E74B2"/><path fill-rule="evenodd" clip-rule="evenodd" d="M44.11 70s-.12 1.46-.11 1.668c.01.16.918.47.97.263.117-.457-.148-1.928-.148-1.928L44.11 70Z" fill="#5745A0"/><path fill-rule="evenodd" clip-rule="evenodd" d="M44.895 71.53c.038-.1.076-.52.102-.873.022-.293-.084-.563-.235-.598-.233-.055-.493-.088-.57-.024-.12.102-.15.405-.175.63-.025.223-.028.642.025.855.047.196.219.415.324.448.318.1.422-.028.529-.439Z" fill="#7E74B2"/><path fill-rule="evenodd" clip-rule="evenodd" d="M45 70.752s-.098-.534-.73-.708c-.447-.123-1.074.016-1.244.395-.151.338.4.561.4.561s-.205-.6 1.009-.57c0 0 .517.122.565.322Z" fill="#F1A786"/><path fill-rule="evenodd" clip-rule="evenodd" d="M44 70.5s.738-.708 1.69-.439c.95.27-.586.939-.586.939s.013-.587-1.104-.5Z" fill="#E99B76"/><path fill-rule="evenodd" clip-rule="evenodd" d="M57.884 92c-.05 0-.097-.038-.111-.096l-2.179-8.733c-.19-.767-.658-1.415-1.282-1.777l-.249-.145c-.057-.033-.08-.113-.05-.177.03-.065.099-.09.156-.058l.249.145c.68.396 1.19 1.103 1.4 1.94l2.178 8.733c.017.07-.019.143-.08.163l-.032.005Z" fill="#403B45"/><path fill-rule="evenodd" clip-rule="evenodd" d="M58 93h5V80h-5v13Z" fill="#FFE5B0"/><path fill-rule="evenodd" clip-rule="evenodd" d="M58 92h4V81h-4v11Z" fill="#FCD4A4"/><path fill-rule="evenodd" clip-rule="evenodd" d="M58 91.48 61.426 81H62v1.109L58.653 92H58v-.52Z" fill="#FFE5B0"/><path fill-rule="evenodd" clip-rule="evenodd" d="M63 93h5V80h-5v13Z" fill="#FCD4A4"/><path fill-rule="evenodd" clip-rule="evenodd" d="M64 92h4V81h-4v11Z" fill="#F4C490"/><path fill-rule="evenodd" clip-rule="evenodd" d="M64 91.48 67.426 81H68v1.109L64.653 92H64v-.52Z" fill="#FCD4A4"/><path fill-rule="evenodd" clip-rule="evenodd" d="m42 79.708.103-1.28s1.53-.307 2.092-1.36c.561-1.053.173-2.672.173-2.672L46.492 74s.53.831.507 3.138c-.022 2.308-.16 2.452-.16 2.452s-2.654.54-4.187.38L42 79.708Z" fill="#62A0D3"/><path fill-rule="evenodd" clip-rule="evenodd" d="M42.319 73.008c-.386.197-.416.931-.12 1.599.267.603 1.532 2.097 2.403 2.372.61.192.337-.977.337-.977l-1.494-1.87s-.894-1.243-1.126-1.124Z" fill="#7E74B2"/><path fill-rule="evenodd" clip-rule="evenodd" d="M45 79.885s.672-1.47.816-3.385c.02-.259.075-.757.026-1.014-.065-.339-.306-1.35-.306-1.35l.885-.136s.505.594.563 2.106c.06 1.512-.067 3.894-.067 3.894L45 79.885Z" fill="#528CC6"/><path fill-rule="evenodd" clip-rule="evenodd" d="M44.007 75.589C43.792 77.158 48.783 80 48.783 80l.217-.298-3.672-3.993s-1.131-1.512-1.321-.12Z" fill="#7E74B2"/><path fill-rule="evenodd" clip-rule="evenodd" d="M44.553 74s-.804-1.702-1.553-1.84c0 0 .19-.105.367-.159.177-.053 1.633 1.617 1.633 1.617l-.447.382Z" fill="#62A0D3"/><path fill-rule="evenodd" clip-rule="evenodd" d="M42.42 73s-.512.246-.405 1.217C42.12 75.187 43.02 76 43.02 76l.98-1.15s-1.045-1.772-1.58-1.85Z" fill="#F1A786"/><path fill-rule="evenodd" clip-rule="evenodd" d="M98 95.5c0 .829-4.477 1.5-10 1.5s-10-.671-10-1.5S82.477 94 88 94s10 .671 10 1.5Z" fill="#EFEBEA"/><path fill-rule="evenodd" clip-rule="evenodd" d="M83.085 68.998s-.483.02-.892-.471c-.531-.64.202-.87.202-.87s-.53-.645.808-.891c1.338-.247.38-1.12 1.248-.608.289.17 1.017 1.147.104 1.645 0 0 .19.961-.227 1.09-.416.128-1.243.105-1.243.105Z" fill="#403B45"/><path fill-rule="evenodd" clip-rule="evenodd" d="M82.914 69a.774.774 0 0 1-.47-.167 1.26 1.26 0 0 1-.323-.365c-.079-.137-.148-.298-.11-.466a.557.557 0 0 1 .331-.385l-.026.073a.599.599 0 0 1-.091-.348.491.491 0 0 1 .16-.328c.183-.18.446-.241.675-.3.225-.054.44-.175.515-.38a.92.92 0 0 0 .044-.155c.015-.053.007-.11.058-.167.04-.025.079-.005.105.005.029.014.054.03.079.047.049.034.094.072.139.109-.05-.032-.1-.064-.151-.093a.595.595 0 0 0-.08-.038c-.025-.01-.055-.016-.067-.005-.025.032-.023.096-.03.149a.743.743 0 0 1-.034.167.593.593 0 0 1-.21.289 1.007 1.007 0 0 1-.337.162c-.121.035-.233.058-.34.106a.82.82 0 0 0-.28.175c-.154.145-.161.376-.057.553.016.026.005.058-.024.072l-.002.001c-.132.058-.248.174-.274.309-.034.135.011.282.08.415.07.134.167.258.283.364a.775.775 0 0 0 .437.2Z" fill="#000"/><path fill-rule="evenodd" clip-rule="evenodd" d="M81.283 75.012c-.004.05-.878 1.877-1.126 3.204-.75 3.999 1.418 14.357 1.676 16.475.035.286.584-.051.6-.407.098-2.232.887-14.48.887-14.48L85.8 95l.611-.121s1.004-8.88.392-12.997c-.357-2.401.5-3.187-1.394-6.475-.61-.142-3.178-.474-4.125-.395Z" fill="#BCDCE5"/><path fill-rule="evenodd" clip-rule="evenodd" d="M79.657 80c.064.003.12.026.139.059.048.082.187.184.203.43.01.126-.095.494-.209.51-.114.014-.15-.076-.15-.076s-.056.042-.14.009c-.084-.033-.215-.417-.185-.546 0 0-.218.15-.3.127-.08-.023.168-.253.279-.32 0 0 .071-.094.083-.146.007-.036.164-.05.28-.046Z" fill="#7E74B2"/><path fill-rule="evenodd" clip-rule="evenodd" d="m83.33 79.009.23.736L85.852 95l.566-.122s.858-8.485.489-13.037c-.198-2.43.336-3.21-1.417-6.51-.335-.085-1.308-.237-2.228-.33-.63-.064.067 4.008.067 4.008Z" fill="#9BD3DD"/><path fill-rule="evenodd" clip-rule="evenodd" d="M80.776 71.5s-.269 1.922-.647 3.958c-.168.904.313.512-.879 4.463-.07.23-.235-.113-.235-.113s-.07-2.469.09-3.283c.059-.299.19-1.19.19-1.19s.43-4.356.975-4.83C80.59 70.228 81 70 81 70l-.224 1.5Z" fill="#7E74B2"/><path fill-rule="evenodd" clip-rule="evenodd" d="M81.048 70.627c.459-.416 1.831-.896 4.337-.446.249.045.491.127.736.258-.134.889.236 2.05.236 2.05-.225.553-.884 1.783-.496 3.04.745 2.412 1.13 3.621 1.139 3.787-.419.177-2.172.611-3.817.68-1.566.064-2.987-.581-3.183-.691.053-.471.728-4.75.759-6.08.032-1.427.29-2.598.29-2.598Z" fill="#fff"/><path fill-rule="evenodd" clip-rule="evenodd" d="M86.07 75.727s-.31-2.941-.493-3.53c-.355-1.137-.577-1.01-.577-1.01L85.21 70s.828.095 1.1.696c.507 1.114.675 5.17.69 5.304l-.93-.273ZM83.973 69.035s.088.79-.055.872c-.145.081-.629.175-.852-.033-.223-.207.192-.874.192-.874l.715.035Z" fill="#7E74B2"/><path fill-rule="evenodd" clip-rule="evenodd" d="M83.998 69.96c-.311.139-.906-.095-.998-.498.026-.37.033-.156.097-.462l.89.105c.008.295.017.513.011.854Z" fill="#5745A0"/><path fill-rule="evenodd" clip-rule="evenodd" d="M83.057 69.456c-.061-.193-.057-1.018-.057-1.018.072-.59.743-.45.85-.337.117.124.132.432.146.66.014.229-.005.646-.07.85-.058.185-.244.37-.353.383-.33.039-.43-.109-.516-.538Z" fill="#7E74B2"/><path fill-rule="evenodd" clip-rule="evenodd" d="M85.63 70s1.547 0 1.892 2l.264.847.1-.04.114.48s-1.294.574-1.72.713c0 0-1.495-1.803-1.254-2.254.242-.45.603-1.746.603-1.746Z" fill="#E4E4E4"/><path fill-rule="evenodd" clip-rule="evenodd" d="M82 70s-1 .208-1.363 1.026c-.145.327-.32 1.427-.403 1.827l-.115-.005-.119.618s.637.315 1.093.534l.438-.9L82 70Z" fill="#fff"/><path fill-rule="evenodd" clip-rule="evenodd" d="M83.839 70c.56-.005.767.038 1.528.174.252.045.497.127.745.258-.136.89.238 2.053.238 2.053-.228.554-.894 1.785-.502 3.043.753 2.415 1.142 3.626 1.152 3.792-.403.168-2.025.57-3.614.667l-.245.013s-.606-9.986.698-10Z" fill="#E4E4E4"/><path fill-rule="evenodd" clip-rule="evenodd" d="M82 70.108s.034.782 1.132.885C84.146 71.09 85 70.14 85 70.14s-1.856-.293-3-.032ZM86.81 79.255c-.027 1.348-.26.594-.323-.133-.063-.725-.683-3.872-.424-4.694.22-.701.745-.538.873.47.192 1.514-.106 3.306-.127 4.358Z" fill="#7E74B2"/><path fill-rule="evenodd" clip-rule="evenodd" d="M87.786 79.004c.068.018.286.554.19.774-.074.169-.11.228-.243.221-.1-.005-.529-.148-.475-.317.033-.103.001-.063.05-.125 0 0-.227.166-.297.116-.07-.05.219-.386.365-.466.097-.055.288-.236.41-.203Z" fill="#5745A0"/><path fill-rule="evenodd" clip-rule="evenodd" d="M89 71.138s.055-1.862 1.263-2.49c0 0 .043-.72 1.1-.642 1.056.077 1.436.834 1.56 1.087.126.253.447.965.583.873.073-.05 1.835.198 2.254 2.088 0 0 1.146 2.961-1.573 3.808-2.719.846-4.978-2.37-5.187-4.724Z" fill="#F3BF4F"/><path fill-rule="evenodd" clip-rule="evenodd" d="M92 95.718c-.008-.208.567-.538.948-.718-.113.108-.224.261-.043.332.264.103.84-.033 1.008-.315.067.205.086.492.087.69.001.254-1.98.502-2 .011Z" fill="#3B2B5B"/><path fill-rule="evenodd" clip-rule="evenodd" d="M90.713 76c-.015.05-.294.157-1.027 1.362-1.283 2.112-.508 7.302.234 10.044.672 2.486.678 5.354 1.306 7.366.089.286.126.335.12-.039-.023-1.242.159-8.115.159-8.115l.193-5.92 1.7 14.178s.104.258.14-.12c.243-2.536 1.44-12.617 1.46-13.883.052-3.249-.884-3.743-1.179-4.518-.465.118-2.355.201-3.106-.355Z" fill="#7E74B2"/><path fill-rule="evenodd" clip-rule="evenodd" d="M95.675 80.007a.192.192 0 0 1 .133.068c.085.094.135.239.19.402 0 0 .036.305-.16.395 0 0-.095.004-.078-.072 0 0-.107.193-.235.2-.127.007-.139-.087-.139-.087s-.073.038-.154-.001c-.08-.04-.111-.352-.04-.48 0 0-.088.138-.169.109-.08-.03.066-.307.204-.366 0 0 .105-.09.132-.142.02-.035.193-.039.316-.026Z" fill="#7E74B2"/><path fill-rule="evenodd" clip-rule="evenodd" d="M95.026 76.692c.079.575.517 2.716.517 2.716.254 1 1.306.545 1.43.007.23-1.005-1.033-3.631-1.505-4.268-.49-.66-.504 1.089-.442 1.545Z" fill="#F1A786"/><path fill-rule="evenodd" clip-rule="evenodd" d="M94.927 78.312c-.552-1.41-1.167-2.278-1.441-2.626-.004-.775.137-1.335.285-2.107.076-.392.036-1.48.005-2.097-.012-.261-.26-.466-.575-.475-.254-.007-.603-.01-1.058-.003-3.002.053-2.887.254-2.887.254s-.304 1.457-.099 2.858c.151 1.034.283 1.394.417 1.806-.445.55-.876 1.15-1.205 2.121-.448 1.324-.654 4.116.366 7.856 0 0 3.377.375 5.565-.318 0 0 1.454-.423 1.7-.683 0 0-.337-4.704-1.073-6.586Z" fill="#F5BCA4"/><path fill-rule="evenodd" clip-rule="evenodd" d="M94.864 76.628s-.5-2.747-.785-3.231c-.565-.958-.918-1.224-.918-1.224s-.527-1.167.326-1.173c1.127-.008 2.398 3.3 2.513 6l-1.136-.372Z" fill="#F1A786"/><path fill-rule="evenodd" clip-rule="evenodd" d="M88 76s.395-1.895.508-2.394c.11-.479.252-1.098.31-1.367.094-.43.25-.966.548-1.134.197-.11.39-.186.565.051.257.35-.269 1.7-.464 2.603-.236 1.086-.379 1.475-.407 2.094L88 76Z" fill="#F5BCA4"/><path fill-rule="evenodd" clip-rule="evenodd" d="M91.18 70.004s-.27.793-.148.881c.123.089.578.204.846.005.267-.199.013-.89.013-.89l-.712.004Z" fill="#7E74B2"/><path fill-rule="evenodd" clip-rule="evenodd" d="M91 70.72c.13.22.644.36.998.23.01-.25-.025-.393-.058-.603L91.133 70c-.036.198-.107.49-.133.72Z" fill="#5745A0"/><path fill-rule="evenodd" clip-rule="evenodd" d="M91.918 70.443c.115-.191.075-.989.075-.989-.052-.482-.881-.464-1.083-.448-.238.02-.427.063-.638.18-.232.129-.25.428-.268.65-.02.221.034.624.171.816.126.176.507.342.727.347.662.015.858-.135 1.016-.556Z" fill="#7E74B2"/><path fill-rule="evenodd" clip-rule="evenodd" d="M91 68.417s-.07.798 1.38 1.626C93.831 70.872 94 71 94 71s-.351-1.996-1.314-2.624c-.963-.628-1.509-.367-1.685.04Z" fill="#F3BF4F"/><path fill-rule="evenodd" clip-rule="evenodd" d="M89.004 71a3 3 0 0 1 .044-.675 3.41 3.41 0 0 1 .191-.657c.093-.211.215-.414.368-.594a2.03 2.03 0 0 1 .558-.446l-.04.056a.855.855 0 0 1 .294-.48.904.904 0 0 1 .53-.199c.094-.013.187.002.28.006.09.016.181.028.269.054.086.03.173.053.257.087.083.035.164.072.245.109-.087-.024-.173-.048-.258-.074-.086-.024-.174-.036-.26-.055-.088-.014-.175-.02-.262-.03-.087.003-.174-.005-.257.013a.833.833 0 0 0-.445.194.767.767 0 0 0-.234.399.086.086 0 0 1-.04.056c-.19.113-.368.244-.514.41-.142.166-.267.349-.364.547a3.312 3.312 0 0 0-.232.622c-.06.214-.104.434-.13.657Z" fill="#FFDB8C"/><path fill-rule="evenodd" clip-rule="evenodd" d="M87.02 79.063s-.09 1.003.106 1.111c.196.108.757.887.829.822.071-.065.068-.32-.082-.635a2.967 2.967 0 0 0-.32-.414c-.077-.065-.173-.543-.29-.77-.034-.065-.194-.283-.242-.114Z" fill="#7E74B2"/><path fill-rule="evenodd" clip-rule="evenodd" d="M87.783 76.11c-.162.594-.758 2.87-.758 2.87-.194 1.073.818 1.249 1.117.764.56-.905.949-3.665.84-4.459-.114-.825-1.07.355-1.199.826Z" fill="#F5BCA4"/><path fill-rule="evenodd" clip-rule="evenodd" d="M94.97 78.27c-.543-1.414-1.178-2.225-1.448-2.573-.004-.777.135-1.338.281-2.112.075-.393.036-1.483.006-2.102-.013-.262-.257-.467-.567-.476-.251-.007-.595-.01-1.043-.003-.32.006-.604.014-.857.022-.832.03.116 4.918.116 4.918s.002 2.287.121 3.714c.255 3.072.448 6.342.448 6.342l.179-.012c.73-.055 1.477-.167 2.119-.374 0 0 1.433-.424 1.675-.684 0 0-.303-4.774-1.03-6.66Z" fill="#F1A786"/><path fill-rule="evenodd" clip-rule="evenodd" d="M90 71.134s.293.632 1.22.84c.926.208 1.78-.911 1.78-.911s-1.407-.18-3 .07Z" fill="#7E74B2"/><path fill-rule="evenodd" clip-rule="evenodd" d="M92 71s.093 1.153 1.082 1.64c.99.487 2.447.9 2.641 1.36 0 0 .712-.591-.148-1.676C94.715 71.24 92 71 92 71Z" fill="#F3BF4F"/><path fill-rule="evenodd" clip-rule="evenodd" d="M123.004 97.647c.05-.273.294-.498.487-.647-.058.1-.117.246-.029.335.13.13.419.044.508-.229.029.217.033.512.029.715-.005.26-1.075.266-.995-.174Z" fill="#3B2B5B"/><path fill-rule="evenodd" clip-rule="evenodd" d="M127.798 82c.133-.509.114-1.018.155-1.728.048-.847.147-2.748-.251-3.15-.469-.474-.623.557-.618.902.006.422.091.995-.004 2.02-.033.35-.08.895-.08.895s.432.618.798 1.061Z" fill="#EFEBEA"/><path fill-rule="evenodd" clip-rule="evenodd" d="M127.975 78.658c.174-.924-.583-3.804-1.581-3.652-.371.056-.394.68-.394.68l1.147 2.955s.681.796.828.017Z" fill="#EFEBEA"/><path fill-rule="evenodd" clip-rule="evenodd" d="M126 82.008c-.176.436-.602 1.006-1.132 1.443-.633.52-1.835 1.63-2.496 1.544-.78-.102-.134-.87.145-1.063.341-.236.487-.36 1.323-1.057.183-.152 1.064-.793 1.064-.793s.429-.112 1.096-.074Z" fill="#E8E1E0"/><path fill-rule="evenodd" clip-rule="evenodd" d="M128.029 85.987c1.054.682 2.1 4.862 2.1 4.862s5.559 1.832 5.831 1.88l.04.198c-.005.028-5.469.34-7.121-.588-.746-.42-2.503-2.914-3.187-4.937-.226-.669-.561-1.773-.674-2.118-.256-.783 2.316.253 3.011.703Z" fill="#7E74B2"/><path fill-rule="evenodd" clip-rule="evenodd" d="m125 86 .916 2.707L127.618 91 130 89.525l-.97-2.73L125 86Z" fill="#D55A4D"/><path fill-rule="evenodd" clip-rule="evenodd" d="M129.997 87.495c.11 1.58-3.27 3.965-3.27 3.965L124.136 97s-.114-.1-.123-.126c-.093-.265.326-4.191.609-6.016.101-.65 2.373-3.835 2.373-3.835s-.284-.746-.713-1.638c.315-.088.384-.645 1.535-.237 1.12.397 2.06.616 2.18 2.347Z" fill="#7E74B2"/><path fill-rule="evenodd" clip-rule="evenodd" d="m126.386 85.975.315.652s-.694.713-1.701 2.456L127.421 91s3.155-2.705 2.486-4.363c-.67-1.659-1.621-1.637-1.621-1.637l-1.9.975Z" fill="#EF5E4E"/><path fill-rule="evenodd" clip-rule="evenodd" d="M126.886 81.001c-1.566.037-2.661.596-2.871 1.828-.124.723.561 2.482.646 3.329l.207.556a.258.258 0 0 0 .235.28c.409.026 1.006-.028 1.81-.285 1.291-.413 2.255-1.161 2.062-1.418-2.082-3.79-.611-4.324-2.089-4.29Z" fill="#EFEBEA"/><path fill-rule="evenodd" clip-rule="evenodd" d="M125.32 82s-.109.041-.162.063c-.675.28-1.031.514-1.149 1.092-.129.635 1.116 3.59 1.116 3.59-.009.097.212.397 1.127.175.193-.047.748-.171.748-.171s-.412-.733-1.019-1.764c-.704-1.196-.661-2.985-.661-2.985Z" fill="#E8E1E0"/><path fill-rule="evenodd" clip-rule="evenodd" d="M125.167 80.917c.044-.004.95-.78.82-1.071-.162-.362-.711-.44-.711-.44s.019-.923-1.25-.91c-.695.009-.584-.346-.748-.464l-.026-.023c-.138-.14-.646 1.337.35 2.615.477.611 1.565.293 1.565.293Z" fill="#FF5E4D"/><path fill-rule="evenodd" clip-rule="evenodd" d="M124.006 80.248c-.031-.116.062-.518.15-.852a.558.558 0 0 1 .665-.381c.45.105.94.246 1.056.355.182.171.119.463.078.68-.041.218-.198.596-.377.753-.163.144-.564.227-.771.187-.622-.12-.765-.304-.801-.742Z" fill="#7E74B2"/><path fill-rule="evenodd" clip-rule="evenodd" d="M125.374 81c.111-.117.203-.26.294-.401a2.36 2.36 0 0 0 .237-.454c.029-.08.052-.173.03-.239a.57.57 0 0 0-.119-.207.731.731 0 0 0-.368-.215c-.017-.004-.028-.022-.029-.043v-.002a1.097 1.097 0 0 0-.173-.574.714.714 0 0 0-.421-.294c-.159-.056-.331-.014-.502-.077a.363.363 0 0 1-.202-.207c-.042-.098-.051-.217-.121-.287.074.064.092.186.137.274a.322.322 0 0 0 .196.174c.158.052.332.001.503.05a.752.752 0 0 1 .458.31c.122.17.187.398.192.633l-.028-.044c.146.04.284.112.399.241a.657.657 0 0 1 .132.239c.03.114-.008.213-.039.297a2.174 2.174 0 0 1-.259.451c-.099.134-.2.269-.317.375Z" fill="#FF7B71"/><path fill-rule="evenodd" clip-rule="evenodd" d="M128 74.356 127.681 76 120 74l8 .356ZM127 73l-.276.779L120 74l.588-.108L127 73Z" fill="#DBCFFD"/><path fill-rule="evenodd" clip-rule="evenodd" d="M126.257 73 120 74l7-.684-.743-.316ZM127.752 74l-7.752.708 9 .292-1.248-1Z" fill="#EEEAFE"/><path fill-rule="evenodd" clip-rule="evenodd" d="M122.271 84.998c-.708.068-2.662-1.534-2.202-2.603.172-.398.436-.395.436-.395L123 84.376s.001.552-.729.622Z" fill="#E8E1E0"/><path fill-rule="evenodd" clip-rule="evenodd" d="M107.96 97.984c.096-.093 0-.357-.09-.56-.001.07-.025.15-.147.084-.178-.097-.384-.379-.322-.508-.135.01-.289.059-.389.097-.129.05.793 1.038.948.887Z" fill="#3B2B5B"/><path fill-rule="evenodd" clip-rule="evenodd" d="M108.978 86c.004.037.56.156.923 1.11.636 1.67-2.002 1.692-2.002 1.692l-.789 2.685a1.927 1.927 0 0 1-1.006 1.19l-2.705 1.31s-.424.086-.398-.187c.106-1.099 2.208-1.966 2.208-1.966s.097-2.408.347-3.49c.43-1.865.598-1.827.686-2.333.32.148 2.115.278 2.736-.011Z" fill="#7F65C1"/><path fill-rule="evenodd" clip-rule="evenodd" d="M107.527 88.823s-.144 2.15-.174 3.326c-.04 1.54-.358 3.956-.353 4.8l.321.051s2.983-8.227 2.654-9.772c-.206-.966-1.304-1.765-1.47-.772-.2 1.198-.978 2.367-.978 2.367Z" fill="#6E57B5"/><path fill-rule="evenodd" clip-rule="evenodd" d="M108.216 79.501s-.378-.746-1.062-.417c-.683.329-.818.788-.818.788s-1.361.023-1.985 1.036c-.184.299-.906 2.07.488 2.748.639.31 1.316.512 1.979.151.663-.36 1.855-1.874 1.855-1.874s.981-1.921-.457-2.432Z" fill="#3B2B5B"/><path fill-rule="evenodd" clip-rule="evenodd" d="M109.207 81.558s.006-.607-1.957-.555c-.914.025-.857 1.279-.882 1.801-.045.905.166 1.772-.368 3.6.419.387 3.704.622 3.974.594.001-.024.074-.876-.031-2.273-.074-.981-.736-3.167-.736-3.167Z" fill="#BCDCE5"/><path fill-rule="evenodd" clip-rule="evenodd" d="M109.177 81.457s-.044-.327-1.051-.434C108.085 81.02 108 81 108 81s.621 1.36.718 2.612c.134 1.728-.181 3.283-.181 3.283s1.064.12 1.436.103c.002-.023.076-.875-.031-2.273-.074-.981-.765-3.268-.765-3.268ZM112.324 78.002s.807-.088.657.926c-.181 1.23-1 2.316-1.486 2.8-.186.186-.495.272-.495.272s.611-4.034 1.324-3.998Z" fill="#A0BEC9"/><path fill-rule="evenodd" clip-rule="evenodd" d="M106.263 81.01c-.363.09-.32.988-.055 1.356.161.224.35.512.744.78 1.096.75 2.048.854 2.048.854l-.036-1.458s-1.619-1.096-2.248-1.456a.768.768 0 0 0-.453-.077Z" fill="#D2E7ED"/><path fill-rule="evenodd" clip-rule="evenodd" d="M109 81.487s.162.009.78-.124c.827-.178 1.198-.363 1.198-.363l.022.75s-1.182.23-1.545.25c-.314.017-.455-.513-.455-.513Z" fill="#A0BEC9"/><path fill-rule="evenodd" clip-rule="evenodd" d="M108.986 80.668c.044-.1-.029-.49-.029-.49-.059-.233-.466-.177-.564-.158a.705.705 0 0 0-.301.125c-.106.076-.094.224-.088.334.005.11.059.305.139.391.073.08.272.14.381.129.326-.03.413-.115.462-.331Z" fill="#7E74B2"/><path fill-rule="evenodd" clip-rule="evenodd" d="m108.915 80.027.085.176s-.207.22-.935.322c-.729.103-.843.475-.843.475s-.604-.553.181-.824c.784-.27 1.512-.149 1.512-.149Z" fill="#3B2B5B"/><path fill-rule="evenodd" clip-rule="evenodd" d="M108 79.566c-.099-.195-.243-.358-.413-.434-.17-.078-.357-.049-.522.033-.165.09-.328.204-.465.347-.137.139-.26.322-.321.504v.003c-.011.033-.036.053-.063.055-.39.028-.787.151-1.135.373-.342.221-.659.556-.789 1.012-.141.452-.228.953-.15 1.432.038.238.124.463.249.654.126.19.293.338.472.455a1.42 1.42 0 0 1-.513-.41 1.584 1.584 0 0 1-.3-.672c-.103-.509-.037-1.044.112-1.523.039-.121.078-.238.139-.356a2.001 2.001 0 0 1 .709-.765 2.56 2.56 0 0 1 1.204-.369l-.064.058c.084-.248.225-.416.379-.563.155-.145.325-.252.505-.337a.63.63 0 0 1 .572.012c.178.098.313.283.394.491Z" fill="#7F65C1"/><path fill-rule="evenodd" clip-rule="evenodd" d="M107.062 80.997c.007.066-.243-.929.213-1.591.455-.663 1.564-.54 1.725.564 0 0-.453-.887-1.191-.662-.413.126-.851.692-.747 1.689Z" fill="#C43B72"/><path fill-rule="evenodd" clip-rule="evenodd" d="M107.699 79.042c-.07-.041-.151-.068-.216-.004-.054.053-.037.12-.018.18a.833.833 0 0 0 .104.243c-.06.018-.105.063-.093.117a.622.622 0 0 0-.368.09c-.039.026-.108.068-.108.116 0 .047.064.072.104.094.072.038.149.07.23.093.049.015.119.043.17.02.093-.042.106-.179.125-.277l.022-.008c.057 0 .114-.02.145-.063.033-.045.01-.094-.031-.132l.005-.004c.043-.082.16-.126.222-.202.017-.02.005-.052-.015-.068a2.033 2.033 0 0 0-.278-.195Z" fill="#C43B72"/><path fill-rule="evenodd" clip-rule="evenodd" d="M113 78a2 2 0 1 1-4 0 2 2 0 0 1 4 0Z" fill="#F3BF4F"/><path fill-rule="evenodd" clip-rule="evenodd" d="M110.695 80c-.051-.258.117-.845.76-1.609.535-.635.442-1.247.317-1.482-.025-.047-.626-1.156-1.603-.593-.89.514-1.126 2.115-1.127 2.13 0 0-.012-.055-.022-.122a1.392 1.392 0 0 1-.02-.161c.022-.404.316-1.527 1.113-1.987 1.078-.622 1.74.597 1.767.65.155.291.258.972-.335 1.676-.601.714-.763 1.301-.726 1.492l-.07.005-.054.001Z" fill="#F8F7FD"/><path fill-rule="evenodd" clip-rule="evenodd" d="M110.466 80s-1.324 2.663-1.427 3.04c-.086.313-.091 1.294.635.843.876-.543 2.013-3.582.792-3.883Z" fill="#D2E7ED"/><path fill-rule="evenodd" clip-rule="evenodd" d="M110.604 79.985s-.402-.067-.543-.316a.42.42 0 0 1 .018-.463c.082-.09.122.353.122.353s-.064-.537.068-.559c.061-.01.094.176.094.176s-.044-.068.065-.076c.109-.009.174.372.228.48.055.109.112.19.33.38.071.061-.138.037-.382.025Z" fill="#FF97A6"/></svg>